<?xml version="1.0" encoding="UTF-8" standalone="no"?>
<!-- Created with Inkscape (http://www.inkscape.org/) -->

<svg
   version="1.1"
   id="svg1"
   width="512"
   height="512"
   viewBox="0 0 512 512"
   sodipodi:docname="aldm.svg"
   inkscape:version="1.3 (0e150ed6c4, 2023-07-21)"
   xmlns:inkscape="http://www.inkscape.org/namespaces/inkscape"
   xmlns:sodipodi="http://sodipodi.sourceforge.net/DTD/sodipodi-0.dtd"
   xmlns="http://www.w3.org/2000/svg"
   xmlns:svg="http://www.w3.org/2000/svg">
  <defs
     id="defs1" />
  <sodipodi:namedview
     id="namedview1"
     pagecolor="#ffffff"
     bordercolor="#000000"
     borderopacity="0.25"
     inkscape:showpageshadow="2"
     inkscape:pageopacity="0.0"
     inkscape:pagecheckerboard="true"
     inkscape:deskcolor="#d1d1d1"
     inkscape:zoom="0.9084334"
     inkscape:cx="244.37675"
     inkscape:cy="195.39132"
     inkscape:window-width="1920"
     inkscape:window-height="995"
     inkscape:window-x="0"
     inkscape:window-y="0"
     inkscape:window-maximized="1"
     inkscape:current-layer="g3">
    <inkscape:page
       x="0"
       y="0"
       inkscape:label="1"
       id="page1"
       width="512"
       height="512"
       margin="0"
       bleed="0" />
  </sodipodi:namedview>
  <g
     id="g1"
     inkscape:groupmode="layer"
     inkscape:label="1">
    <g
       id="group-R5">
      <g
         id="g2">
        <path
           id="path27"
           d="m 257.23409,507.11983 c 138.3751,0 251.23408,-33.51733 251.23408,-74.61034 0,-41.09206 -112.85898,-74.6085 -251.23408,-74.6085 C 118.85898,357.90099 6,391.41743 6,432.50949 c 0,41.09301 112.85898,74.61034 251.23409,74.61034"
           style="fill:#5430f3;fill-opacity:1;fill-rule:evenodd;stroke:none;stroke-width:0.096751" />
        <path
           id="path28"
           d="m 257.23409,357.90195 c 112.89574,0 208.39374,22.11435 240.06806,52.55122 -27.96198,26.78454 -93.44688,45.58033 -169.77175,45.58033 -101.751,0 -184.23698,-33.40519 -184.23698,-74.60947 0,-5.51384 1.48997,-10.88447 4.29188,-16.05678 33.13428,-4.78144 70.33404,-7.4653 109.64879,-7.4653"
           style="fill:#1e88db;fill-opacity:1;fill-rule:evenodd;stroke:none;stroke-width:0.096751" />
      </g>
      <g
         id="g3">
        <path
           id="path29"
           d="m 489.75074,231.79195 -59.83078,37.7048 27.24701,-28.55893 z"
           style="fill:#e1d2cd;fill-opacity:1;fill-rule:evenodd;stroke:none;stroke-width:0.096751" />
        <path
           id="path30"
           d="m 329.46155,337.8658 c -2.21559,9.91697 -4.4457,20.04002 -6.70773,30.37398 -2.33365,10.6813 -4.72532,21.60545 -7.17699,32.69987 8.75692,8.59245 17.44613,17.0959 26.13919,25.54322 8.61664,8.37572 17.18296,16.76403 25.728,25.0372 6.95446,-6.56552 13.75025,-12.95591 20.38833,-19.20409 6.37394,-6.02468 12.61632,-11.90036 18.70195,-17.62801 -4.03451,-11.13894 -8.01098,-22.17629 -11.95648,-33.10043 -3.91648,-10.76161 -7.74974,-21.43226 -11.5714,-32.01198 -8.52377,-1.81892 -17.20619,-3.72974 -26.02311,-5.6754 -9.02105,-1.9418 -18.22786,-3.94745 -27.52176,-6.03436 z m -104.39617,-6.22302 c -11.66236,0.97525 -23.65077,1.96792 -36.00296,3.00121 -12.74016,1.07685 -25.81121,2.174 -39.25184,3.33307 -3.28567,13.30325 -6.74645,27.0177 -10.23916,41.0369 -3.66008,14.53296 -7.39661,29.42583 -11.14861,44.70667 12.56891,6.96317 25.09719,13.72701 37.40584,20.4483 12.19932,6.7329 24.23998,13.26939 36.07068,19.83684 9.81731,-11.31017 19.31923,-22.23432 28.52508,-32.77533 8.88463,-10.20722 17.41226,-20.01584 25.67188,-29.5429 -5.2497,-11.91004 -10.5023,-23.72138 -15.67461,-35.4834 -5.1578,-11.60914 -10.26914,-23.12927 -15.3563,-34.56136 z M 162.14051,226.84799 c -7.56787,-9.61898 -15.09798,-19.2844 -22.68036,-28.99334 -7.58817,-9.65768 -15.16377,-19.32117 -22.76549,-29.02335 -13.00719,0.4886 -26.383005,1.03426 -40.236576,1.55866 -14.298721,0.5892 -28.976126,1.18133 -44.133126,1.78602 -1.198067,11.05863 -2.477791,22.38236 -3.735844,33.89765 -1.25747,11.81521 -2.613822,23.86265 -3.873519,36.14228 15.407584,5.84085 30.599414,11.44176 45.508537,16.92366 14.534891,5.51481 28.825679,10.80514 42.815278,15.97841 8.81014,-8.67468 17.39195,-17.08814 25.71639,-25.25392 8.0313,-7.90745 15.82653,-15.56819 23.38471,-23.01607 z m 53.07756,-73.06049 c 3.28953,-7.13248 6.54229,-14.16435 9.7583,-21.05204 3.08441,-6.65549 6.1369,-13.251 9.13811,-19.68203 -7.5485,-7.71492 -15.14248,-15.423071 -22.7355,-23.20378 -7.61719,-7.805864 -15.28277,-15.63495 -22.98027,-23.532727 -8.33703,1.068131 -16.88787,2.16335 -25.58192,3.283727 -9.08491,1.159076 -18.31301,2.343306 -27.75493,3.556564 2.53874,9.350008 5.07265,18.74549 7.62397,28.264816 2.62775,9.64607 5.25261,19.33471 7.93745,29.22458 11.23278,4.05194 22.34269,8.02839 33.21458,11.9081 10.60295,3.80328 21.09558,7.58335 31.38021,11.23279 z m 91.95884,22.28172 c 8.02743,0.90076 15.92617,1.77733 23.63238,2.63744 7.55044,0.81174 14.94609,1.66316 22.21498,2.46134 0.3812,-7.29308 0.72177,-14.45749 1.05749,-21.5232 0.37442,-6.93899 0.70047,-13.7396 1.05362,-20.44541 -6.65647,-5.2497 -13.30325,-10.53618 -20.05551,-15.90779 -6.78513,-5.37451 -13.62543,-10.81094 -20.5228,-16.24544 -5.06104,3.14247 -10.20529,6.35266 -15.4666,9.63833 -5.37936,3.36403 -10.9077,6.81319 -16.58312,10.34945 4.03452,8.06805 8.13192,16.15836 12.20417,24.31253 4.15062,8.21319 8.27704,16.42251 12.46539,24.72275 z m 52.21454,82.09898 c 6.11949,7.82618 12.22351,15.65817 18.32946,23.49208 6.1311,7.8378 12.26415,15.68914 18.37978,23.50274 6.98445,-1.93018 13.77442,-3.84102 20.42702,-5.70056 6.45812,-1.81892 12.80885,-3.59721 19.02606,-5.35226 -1.87793,-8.31188 -3.76845,-16.52023 -5.63381,-24.61345 -1.82279,-7.97807 -3.60106,-15.86037 -5.36774,-23.61399 -7.20116,-3.65913 -14.44105,-7.37145 -21.79798,-11.1457 -7.46143,-3.81779 -14.99252,-7.69267 -22.67067,-11.65172 -3.26921,5.53028 -6.56843,11.1486 -9.95471,16.91787 -3.50335,5.90374 -7.09377,11.9497 -10.73741,18.16499 v 0"
           style="fill:#d7c9c4;fill-opacity:1;fill-rule:evenodd;stroke:none;stroke-width:0.096751" />
        <path
           id="path31"
           d="m 229.46657,176.6749 c -34.5604,10.67453 -49.26073,54.40013 -23.83459,96.5042 25.42711,42.10407 77.83805,58.76844 108.65032,40.2029 30.8113,-18.56552 32.41445,-58.93388 10.74128,-93.09082 -21.67027,-34.15888 -60.99564,-54.29081 -95.55701,-43.61628 z m -43.38602,-69.67712 c 37.60322,-7.03959 73.28109,1.44159 106.10867,18.66036 31.16928,16.3509 59.70693,41.5874 80.44744,73.67582 20.74338,32.08841 31.05122,67.44023 30.46589,99.67667 -0.63179,34.7568 -12.11128,66.61979 -41.69191,90.54145 -29.58063,23.92263 -74.59496,32.16 -119.44481,20.09709 -48.3242,-12.99655 -95.40609,-47.51438 -124.3085,-97.18532 -28.902785,-49.6729 -31.939505,-99.54897 -15.87508,-138.45735 14.5554,-35.25603 46.69315,-59.97105 84.2983,-67.00872 v 0"
           style="fill:#96a1ac;fill-opacity:1;fill-rule:evenodd;stroke:none;stroke-width:0.096751" />
        <path
           id="path32"
           d="m 248.32042,129.47302 98.59113,66.23374 44.7531,81.62295 21.86087,-122.35218 -0.76046,-1.52286 -104.00433,-71.532791 -60.44031,47.551141"
           style="fill:#96a1ac;fill-opacity:1;fill-rule:evenodd;stroke:none;stroke-width:0.096751" />
        <path
           id="path33"
           d="m 326.78735,148.43136 0.003,9.7e-4 c 10.30881,-12.45282 23.90908,-21.92956 39.41728,-26.99931 l 46.55752,32.02165 0.76046,1.52286 -17.13556,95.90435 c 4.20093,14.43717 6.44845,28.86855 6.70872,42.79293 -3.55366,0.46151 -7.17409,0.70048 -10.84965,0.70048 -20.09904,0 -38.5862,-7.10248 -53.22655,-19.00091 2.37813,-17.35227 -2.57454,-37.07882 -13.9989,-55.0832 -5.22454,-8.23738 -11.48046,-15.65624 -18.44459,-22.02728 0.74013,-9.00365 2.79029,-17.62125 5.95114,-25.65448 l -0.002,-9.7e-4 0.0716,-0.17996 c 0.10836,-0.27187 0.21769,-0.54374 0.32799,-0.81464 l 0.0726,-0.17705 c 0.14029,-0.34443 0.28348,-0.68596 0.42763,-1.02653 l 0.0687,-0.16061 c 0.13352,-0.31443 0.26995,-0.62694 0.40733,-0.94042 l 0.0513,-0.11803 c 0.15286,-0.3454 0.3067,-0.68886 0.4644,-1.03137 l 0.0629,-0.13738 c 0.13641,-0.29606 0.27573,-0.59212 0.41409,-0.88817 l 0.0929,-0.19544 c 0.31928,-0.67243 0.6463,-1.33903 0.98299,-2.00081 l 0.0947,-0.18673 c 0.16447,-0.32703 0.3338,-0.65114 0.50311,-0.97524 l 0.006,-0.01 c 0.17705,-0.33864 0.35894,-0.67726 0.54083,-1.01395 l 0.0687,-0.12385 c 0.16351,-0.30088 0.32799,-0.59985 0.49439,-0.89881 l 0.0706,-0.1248 c 0.18383,-0.32897 0.37152,-0.65791 0.56115,-0.98591 l 0.0446,-0.0754 c 0.17415,-0.30187 0.35023,-0.60276 0.52922,-0.90173 l 0.0822,-0.13737 c 0.38701,-0.64921 0.78369,-1.2926 1.18617,-1.93116 l 0.0794,-0.12384 c 0.40442,-0.63759 0.81658,-1.26937 1.23648,-1.89439 l 0.0929,-0.13737 c 0.1906,-0.28446 0.38506,-0.56696 0.57952,-0.84851 l 0.0591,-0.088 c 0.21575,-0.31057 0.43248,-0.6192 0.65114,-0.92687 l 0.062,-0.0851 c 0.20704,-0.28929 0.41311,-0.57568 0.6221,-0.86108 l 0.062,-0.0842 c 0.22736,-0.31057 0.45666,-0.62018 0.68887,-0.92784 l 0.0117,-0.0145 c 0.22736,-0.3009 0.45473,-0.59793 0.68402,-0.89592 l 0.0601,-0.0764 c 0.46538,-0.59986 0.93849,-1.19294 1.41838,-1.77925 l 0.0929,-0.11417 0.23317,-0.28445"
           style="fill:#aebac6;fill-opacity:1;fill-rule:evenodd;stroke:none;stroke-width:0.096751" />
        <path
           id="path34"
           d="M 135.06186,73.157214 189.25883,10.838977 202.2573,58.879681 148.05937,121.19694 135.06186,73.157214"
           style="fill:#dfe6ed;fill-opacity:1;fill-rule:evenodd;stroke:none;stroke-width:0.096751" />
        <path
           id="path35"
           d="m 383.65754,275.54853 c -2.21365,9.916 -4.4457,20.03904 -6.70677,30.37302 -2.33363,10.6813 -4.72531,21.60545 -7.17795,32.69987 8.75887,8.59342 17.44709,17.09589 26.14114,25.54419 8.61566,8.37571 17.18296,16.76402 25.728,25.03623 6.95348,-6.5665 13.74927,-12.95689 20.38832,-19.20313 6.37394,-6.02661 12.61632,-11.90037 18.70195,-17.62802 -4.03451,-11.13893 -8.01097,-22.17917 -11.95551,-33.10138 -3.91744,-10.76065 -7.74975,-21.43227 -11.57238,-32.01198 -8.52279,-1.81989 -17.20714,-3.72878 -26.02309,-5.67541 -9.02106,-1.94276 -18.22885,-3.94647 -27.52371,-6.03339 z M 279.2633,269.32454 c -11.66236,0.97622 -23.6527,1.96889 -36.00393,3.00218 -12.74015,1.07588 -25.81024,2.17206 -39.25087,3.33308 -3.28567,13.30324 -6.74644,27.01769 -10.24011,41.03593 -3.65913,14.53393 -7.39662,29.42486 -11.14765,44.7057 12.56795,6.9651 25.09622,13.72798 37.40487,20.4483 12.19837,6.7329 24.23998,13.27133 36.07068,19.83781 9.81732,-11.31018 19.31827,-22.23433 28.52605,-32.77535 8.88366,-10.20818 17.41323,-20.01679 25.67092,-29.54288 -5.24874,-11.91101 -10.50135,-23.72139 -15.67463,-35.4834 -5.15778,-11.60914 -10.2701,-23.12928 -15.35533,-34.56137 z M 216.33844,164.53071 c -7.56786,-9.6209 -15.09701,-19.28535 -22.68132,-28.99431 -7.58817,-9.65767 -15.16377,-19.32116 -22.76549,-29.02334 -13.00623,0.48762 -26.38204,1.03426 -40.23581,1.5577 -14.29881,0.59114 -28.97671,1.18229 -44.133317,1.78698 -1.198454,11.05863 -2.478566,22.38236 -3.735553,33.89766 -1.258537,11.81521 -2.614502,23.8636 -3.874199,36.14323 15.407198,5.83989 30.599129,11.4408 45.508439,16.92367 14.5349,5.51383 28.82597,10.80418 42.81519,15.97745 8.81111,-8.67468 17.3929,-17.08912 25.71639,-25.25296 8.03225,-7.90745 15.82749,-15.57013 23.38567,-23.01608 z m 53.07659,-73.06145 c 3.28855,-7.132478 6.54424,-14.164335 9.75926,-21.053001 3.08248,-6.654528 6.13691,-13.250038 9.14006,-19.681071 -7.55141,-7.715886 -15.14443,-15.424032 -22.7355,-23.203774 -7.61913,-7.804897 -15.2847,-15.634949 -22.98221,-23.5327267 -8.33801,1.0681302 -16.88788,2.1623831 -25.58095,3.2846938 -9.08587,1.1590759 -18.31494,2.3423399 -27.75686,3.5555959 2.53874,9.350978 5.07264,18.745491 7.62397,28.264815 2.62872,9.645099 5.25261,19.334704 7.9384,29.224583 11.23183,4.050961 22.34172,8.02839 33.2146,11.908104 10.60293,3.803278 21.09461,7.583336 31.37923,11.232781 z m 91.95981,22.28173 c 8.02646,0.90076 15.9252,1.77636 23.63045,2.63744 7.55141,0.81174 14.94705,1.66314 22.21691,2.46134 0.38217,-7.29309 0.7208,-14.45652 1.05653,-21.52321 0.37635,-6.938974 0.70047,-13.738629 1.05361,-20.445404 -6.65646,-5.249705 -13.30229,-10.536175 -20.0555,-15.907786 -6.78321,-5.374513 -13.62543,-10.810948 -20.52184,-16.245447 -5.06201,3.142469 -10.20529,6.352666 -15.4666,9.638326 -5.37839,3.36403 -10.9077,6.8132 -16.58408,10.349446 4.03452,8.06806 8.13385,16.157404 12.20417,24.31254 4.15157,8.213185 8.278,16.421535 12.46635,24.722755 z m 52.2126,82.09801 c 6.12144,7.82812 12.22545,15.65913 18.33236,23.49401 6.12918,7.8378 12.26125,15.68914 18.37784,23.50275 6.98445,-1.93115 13.77347,-3.84199 20.42702,-5.70251 6.45813,-1.81795 12.80983,-3.5972 19.02608,-5.3513 -1.87794,-8.31283 -3.76748,-16.51925 -5.63284,-24.61343 -1.82279,-7.9771 -3.60204,-15.8594 -5.36774,-23.61399 -7.20118,-3.65913 -14.44201,-7.37146 -21.79799,-11.1457 -7.46143,-3.81779 -14.99252,-7.69364 -22.67164,-11.65172 -3.26825,5.53028 -6.56841,11.14763 -9.9547,16.91787 -3.50142,5.90374 -7.09281,11.95066 -10.73839,18.16402 v 0"
           style="fill:#c4cdd7;fill-opacity:1;fill-rule:evenodd;stroke:none;stroke-width:0.096751" />
        <path
           id="path36"
           d="m 283.6645,114.35665 c -34.56136,10.67453 -49.26169,54.40015 -23.83459,96.50519 25.42711,42.10405 77.83805,58.76843 108.64935,40.20096 30.81226,-18.5636 32.41349,-58.93194 10.74225,-93.08987 -21.67123,-34.15887 -60.99565,-54.28984 -95.55701,-43.61628 z M 240.27848,44.67858 c 37.60515,-7.03863 73.28109,1.442556 106.10772,18.662285 31.17023,16.348971 59.70692,41.586445 80.44838,73.674855 20.74146,32.08745 31.05221,67.44023 30.46493,99.67667 -0.63178,34.7568 -12.11032,66.61882 -41.69094,90.54242 -29.58063,23.92167 -74.59592,32.16 -119.44675,20.09516 -48.32225,-12.99655 -95.40415,-47.51244 -124.30752,-97.18436 -28.9024,-49.67289 -31.93845,-99.54896 -15.87392,-138.45734 14.5552,-35.255071 46.69296,-59.971061 84.2981,-67.00969 v 0"
           style="fill:#3c3b46;fill-opacity:1;fill-rule:evenodd;stroke:none;stroke-width:0.096751" />
        <path
           id="path37"
           d="m 433.34108,147.78991 -39.76753,50.94903 c 1.71538,21.33551 -6.19013,40.93436 -25.09429,52.32386 -6.31687,3.80715 -13.54416,6.13208 -21.25715,7.05992 l -65.95897,84.50129 c 4.94204,1.79182 9.91311,3.36597 14.89868,4.70596 15.79748,4.25027 31.61335,5.97631 46.76843,5.39097 L 451.20807,190.75312 c -4.00839,-14.45555 -9.97406,-28.94401 -17.86699,-42.96321 z M 340.14381,60.188719 c 2.09079,1.014918 4.17384,2.065633 6.24239,3.152146 16.95365,8.892377 33.12751,20.414444 47.69142,34.238216 l -35.0606,36.792439 c -21.69349,-18.97188 -49.82189,-27.89909 -75.35252,-20.01487 -34.56136,10.67453 -49.26169,54.40015 -23.83459,96.50519 3.39887,5.628 7.28535,10.7974 11.53271,15.49369 l -65.065,68.27713 c -13.08943,-12.97914 -24.78371,-27.88459 -34.44332,-44.48705 -6.42329,-11.04025 -11.56561,-22.0892 -15.50917,-33.02593 L 340.14381,60.188719 v 0"
           style="fill:#555561;fill-opacity:1;fill-rule:evenodd;stroke:none;stroke-width:0.096751" />
        <path
           id="path38"
           d="m 263.92732,82.618485 c -26.18178,6.585836 -46.74135,25.455165 -55.27478,50.817445 -9.11877,27.09607 -5.53318,60.9202 14.11016,93.94129 19.64431,33.02204 50.64911,56.68345 82.79751,66.78232 30.57812,9.60543 61.95637,6.20076 84.02236,-9.03558 22.06501,-15.23632 32.03036,-37.7135 33.45744,-62.70717 1.35064,-23.6914 -5.72185,-50.19727 -21.22038,-74.40048 C 386.32206,123.81212 364.61213,104.97375 341.11907,93.293982 316.64786,81.128521 290.10812,76.033618 263.92732,82.618485 Z m 19.73718,31.738165 c 34.56136,-10.67356 73.88578,9.45741 95.55701,43.61628 21.67124,34.15793 20.07001,74.52627 -10.74225,93.08987 -30.8113,18.56747 -83.22224,1.90309 -108.64935,-40.20096 -25.4271,-42.10504 -10.72677,-85.83066 23.83459,-96.50519 v 0"
           style="fill:#c4cdd7;fill-opacity:1;fill-rule:evenodd;stroke:none;stroke-width:0.096751" />
        <path
           id="path39"
           d="m 272.22274,227.29981 c -4.58503,-4.943 -8.76467,-10.43072 -12.39283,-16.43797 -11.56658,-19.15379 -14.82805,-38.64136 -11.69428,-55.20222 l -40.81824,34.85066 c 3.03506,12.1403 8.12416,24.55925 15.44531,36.86694 6.28978,10.57486 13.74831,20.18804 22.03308,28.70405 z m 119.08393,-41.87864 c 6.76773,26.25144 -0.0367,51.90978 -22.82741,65.64163 -9.73604,5.86892 -21.63156,8.21319 -34.14824,7.35308 l -28.0684,35.95941 c 18.02663,5.54383 36.30385,6.57229 52.76312,3.32533 l 63.30411,-94.69303 c -1.70861,-13.549 -5.92696,-27.53338 -12.65599,-41.11721 z M 299.7803,111.56443 c 21.17684,-0.97912 42.82777,8.09128 60.19359,23.65172 l 16.56085,-17.3784 C 365.68606,107.79985 353.65606,99.52668 341.11907,93.293982 336.78656,91.13934 332.3873,89.208191 327.93676,87.52279 l -28.15646,24.04164 v 0"
           style="fill:#d5dde5;fill-opacity:1;fill-rule:evenodd;stroke:none;stroke-width:0.096751" />
        <path
           id="path40"
           d="m 32.324958,172.17598 54.197545,-62.31824 -7.609752,70.04089 -54.197156,62.31728 7.609363,-70.03993"
           style="fill:#dfe6ed;fill-opacity:1;fill-rule:evenodd;stroke:none;stroke-width:0.096751" />
        <path
           id="path41"
           d="M 99.007531,269.92246 153.20556,207.60422 78.912751,179.89863 24.715595,242.21591 99.007531,269.92246"
           style="fill:#cdd7e1;fill-opacity:1;fill-rule:evenodd;stroke:none;stroke-width:0.096751" />
        <path
           id="path42"
           d="m 201.89933,464.00577 54.19696,-62.31823 -73.47555,-40.28611 -54.19793,62.3192 73.47652,40.28514"
           style="fill:#cdd7e1;fill-opacity:1;fill-rule:evenodd;stroke:none;stroke-width:0.096751" />
        <path
           id="path43"
           d="m 146.52201,351.21646 54.19696,-62.3192 -18.09823,72.50417 -54.19793,62.3192 18.0992,-72.50417"
           style="fill:#dfe6ed;fill-opacity:1;fill-rule:evenodd;stroke:none;stroke-width:0.096751" />
        <path
           id="path44"
           d="m 367.44402,451.52007 54.19794,-62.31823 -43.49341,-42.36917 -54.19794,62.31727 43.49341,42.37013"
           style="fill:#dfe6ed;fill-opacity:1;fill-rule:evenodd;stroke:none;stroke-width:0.096751" />
        <path
           id="path45"
           d="m 367.44402,451.52007 54.19794,-62.31823 39.09027,-36.83115 -54.19793,62.31728 -39.09028,36.8321"
           style="fill:#cdd7e1;fill-opacity:1;fill-rule:evenodd;stroke:none;stroke-width:0.096751" />
      </g>
    </g>
  </g>
</svg>
